HIERARCHY
ROOT Hips
{
	OFFSET 0.0000 0.0680 0.0000
	CHANNELS 6 Xposition Yposition Zposition Yrotation Xrotation Zrotation
	JOINT Spine
	{
		OFFSET 0.0000 0.0680 0.0000
		CHANNELS 3 Yrotation Xrotation Zrotation
		JOINT Spine1
		{
			OFFSET 0.0000 0.2231 0.0000
			CHANNELS 3 Yrotation Xrotation Zrotation
			JOINT Neck
			{
				OFFSET 0.0000 0.2443 0.0000
				CHANNELS 3 Yrotation Xrotation Zrotation
				JOINT Head
				{
					OFFSET 0.0000 0.1518 0.0196
					CHANNELS 3 Yrotation Xrotation Zrotation
				}
			}
			JOINT LeftShoulder
			{
				OFFSET 0.0383 0.2087 -0.0017
				CHANNELS 3 Yrotation Xrotation Zrotation
				JOINT LeftArm
				{
					OFFSET 0.1028 0.0000 0.0000
					CHANNELS 3 Yrotation Xrotation Zrotation
					JOINT LeftForeArm
					{
						OFFSET 0.2888 0.0000 0.0000
						CHANNELS 3 Yrotation Xrotation Zrotation
						JOINT LeftHand
						{
							OFFSET 0.2596 0.0000 0.0000
							CHANNELS 3 Yrotation Xrotation Zrotation
							JOINT LeftHandIndex1
							{
								OFFSET 0.0843 0.0000 0.0328
								CHANNELS 3 Yrotation Xrotation Zrotation
								JOINT LeftHandIndex2
								{
									OFFSET 0.0372 0.0000 0.0000
									CHANNELS 3 Yrotation Xrotation Zrotation
									JOINT LeftHandIndex3
									{
										OFFSET 0.0265 0.0000 0.0000
										CHANNELS 3 Yrotation Xrotation Zrotation
									}
								}
							}
							JOINT LeftHandMiddle1
							{
								OFFSET 0.0843 0.0000 0.0109
								CHANNELS 3 Yrotation Xrotation Zrotation
								JOINT LeftHandMiddle2
								{
									OFFSET 0.0414 0.0000 0.0000
									CHANNELS 3 Yrotation Xrotation Zrotation
									JOINT LeftHandMiddle3
									{
										OFFSET 0.0252 0.0000 0.0000
										CHANNELS 3 Yrotation Xrotation Zrotation
									}
								}
							}
							JOINT LeftHandPinky1
							{
								OFFSET 0.0713 0.0000 -0.0328
								CHANNELS 3 Yrotation Xrotation Zrotation
								JOINT LeftHandPinky2
								{
									OFFSET 0.0309 0.0000 0.0000
									CHANNELS 3 Yrotation Xrotation Zrotation
									JOINT LeftHandPinky3
									{
										OFFSET 0.0239 0.0000 0.0000
										CHANNELS 3 Yrotation Xrotation Zrotation
									}
								}
							}
							JOINT LeftHandRing1
							{
								OFFSET 0.0799 0.0000 -0.0109
								CHANNELS 3 Yrotation Xrotation Zrotation
								JOINT LeftHandRing2
								{
									OFFSET 0.0374 0.0000 0.0000
									CHANNELS 3 Yrotation Xrotation Zrotation
									JOINT LeftHandRing3
									{
										OFFSET 0.0255 0.0000 0.0000
										CHANNELS 3 Yrotation Xrotation Zrotation
									}
								}
							}
							JOINT LeftHandThumb1
							{
								OFFSET 0.0206 -0.0001 0.0517
								CHANNELS 3 Yrotation Xrotation Zrotation
								JOINT LeftHandThumb2
								{
									OFFSET 0.0328 0.0000 0.0000
									CHANNELS 3 Yrotation Xrotation Zrotation
									JOINT LeftHandThumb3
									{
										OFFSET 0.0260 0.0000 0.0000
										CHANNELS 3 Yrotation Xrotation Zrotation
									}
								}
							}
						}
					}
				}
			}
			JOINT RightShoulder
			{
				OFFSET -0.0380 0.2087 -0.0017
				CHANNELS 3 Yrotation Xrotation Zrotation
				JOINT RightArm
				{
					OFFSET -0.1028 0.0000 0.0000
					CHANNELS 3 Yrotation Xrotation Zrotation
					JOINT RightForeArm
					{
						OFFSET -0.2888 0.0000 0.0000
						CHANNELS 3 Yrotation Xrotation Zrotation
						JOINT RightHand
						{
							OFFSET -0.2596 0.0000 0.0000
							CHANNELS 3 Yrotation Xrotation Zrotation
							JOINT RightHandIndex1
							{
								OFFSET -0.0850 0.0000 0.0328
								CHANNELS 3 Yrotation Xrotation Zrotation
								JOINT RightHandIndex2
								{
									OFFSET -0.0372 0.0000 0.0000
									CHANNELS 3 Yrotation Xrotation Zrotation
									JOINT RightHandIndex3
									{
										OFFSET -0.0265 0.0000 0.0000
										CHANNELS 3 Yrotation Xrotation Zrotation
									}
								}
							}
							JOINT RightHandMiddle1
							{
								OFFSET -0.0850 0.0000 0.0109
								CHANNELS 3 Yrotation Xrotation Zrotation
								JOINT RightHandMiddle2
								{
									OFFSET -0.0414 0.0000 0.0000
									CHANNELS 3 Yrotation Xrotation Zrotation
									JOINT RightHandMiddle3
									{
										OFFSET -0.0252 0.0000 0.0000
										CHANNELS 3 Yrotation Xrotation Zrotation
									}
								}
							}
							JOINT RightHandPinky1
							{
								OFFSET -0.0720 0.0000 -0.0328
								CHANNELS 3 Yrotation Xrotation Zrotation
								JOINT RightHandPinky2
								{
									OFFSET -0.0309 0.0000 0.0000
									CHANNELS 3 Yrotation Xrotation Zrotation
									JOINT RightHandPinky3
									{
										OFFSET -0.0239 0.0000 0.0000
										CHANNELS 3 Yrotation Xrotation Zrotation
									}
								}
							}
							JOINT RightHandRing1
							{
								OFFSET -0.0807 0.0000 -0.0109
								CHANNELS 3 Yrotation Xrotation Zrotation
								JOINT RightHandRing2
								{
									OFFSET -0.0374 0.0000 0.0000
									CHANNELS 3 Yrotation Xrotation Zrotation
									JOINT RightHandRing3
									{
										OFFSET -0.0255 0.0000 0.0000
										CHANNELS 3 Yrotation Xrotation Zrotation
									}
								}
							}
							JOINT RightHandThumb1
							{
								OFFSET -0.0214 -0.0001 0.0517
								CHANNELS 3 Yrotation Xrotation Zrotation
								JOINT RightHandThumb2
								{
									OFFSET -0.0328 0.0000 0.0000
									CHANNELS 3 Yrotation Xrotation Zrotation
									JOINT RightHandThumb3
									{
										OFFSET -0.0260 0.0000 0.0000
										CHANNELS 3 Yrotation Xrotation Zrotation
									}
								}
							}
						}
					}
				}
			}
		}
	}
	JOINT LeftUpLeg
	{
		OFFSET 0.0981 0.0000 0.0000
		CHANNELS 3 Yrotation Xrotation Zrotation
		JOINT LeftLeg
		{
			OFFSET 0.0000 -0.4020 0.0000
			CHANNELS 3 Yrotation Xrotation Zrotation
			JOINT LeftFoot
			{
				OFFSET 0.0000 -0.4028 0.0000
				CHANNELS 3 Yrotation Xrotation Zrotation
				JOINT LeftToeBase
				{
					OFFSET 0.0000 -0.0638 0.1471
					CHANNELS 3 Yrotation Xrotation Zrotation
				}
			}
		}
	}
	JOINT RightUpLeg
	{
		OFFSET -0.0955 0.0000 0.0000
		CHANNELS 3 Yrotation Xrotation Zrotation
		JOINT RightLeg
		{
			OFFSET 0.0000 -0.3912 0.0000
			CHANNELS 3 Yrotation Xrotation Zrotation
			JOINT RightFoot
			{
				OFFSET 0.0000 -0.3920 0.0000
				CHANNELS 3 Yrotation Xrotation Zrotation
				JOINT RightToeBase
				{
					OFFSET 0.0000 -0.0620 0.1432
					CHANNELS 3 Yrotation Xrotation Zrotation
				}
			}
		}
	}
}
MOTION
Frames: 6
Frame Time: 0.0166667
-0.0238 0.8393 0.0364 359.7038 352.5059 357.8999 3.9536 354.8235 358.9997 1.3592 4.1496 3.0257 355.0620 4.5996 359.0136 354.6813 355.3286 2.9315 351.4431 4.2979 3.7980 324.1793 358.4030 284.2341 295.7347 300.0320 42.4800 6.0599 357.2311 4.6533 0.0000 0.0000 0.0000 0.0000 0.0000 0.0000 0.0000 0.0000 0.0000 0.0000 0.0000 0.0000 0.0000 0.0000 0.0000 0.0000 0.0000 0.0000 0.0000 0.0000 0.0000 0.0000 0.0000 0.0000 0.0000 0.0000 0.0000 0.0000 0.0000 0.0000 0.0000 0.0000 0.0000 0.0000 0.0000 0.0000 0.0000 0.0000 0.0000 0.0000 0.0000 0.0000 0.0000 0.0000 0.0000 5.0606 5.3337 1.1464 54.5608 359.5319 61.5681 39.3740 354.0974 12.5885 349.6443 357.7792 8.7772 0.0000 0.0000 0.0000 0.0000 0.0000 0.0000 0.0000 0.0000 0.0000 0.0000 0.0000 0.0000 0.0000 0.0000 0.0000 0.0000 0.0000 0.0000 0.0000 0.0000 0.0000 0.0000 0.0000 0.0000 0.0000 0.0000 0.0000 0.0000 0.0000 0.0000 0.0000 0.0000 0.0000 0.0000 0.0000 0.0000 0.0000 0.0000 0.0000 0.0000 0.0000 0.0000 0.0000 0.0000 0.0000 1.7985 4.0930 2.3687 2.6201 19.5034 6.8962 357.3170 342.9189 356.8417 356.3312 2.5145 359.4292 353.1128 6.3632 352.5545 8.1588 18.1840 5.0811 348.5523 347.1376 6.5497 2.8971 0.7628 359.9676 
-0.0238 0.8393 0.0353 0.0417 352.5401 358.0145 4.3602 354.8982 359.1369 1.4748 4.0998 2.5727 354.9807 4.6389 359.0270 354.6108 355.2186 2.9723 351.5222 4.3147 3.8322 325.3604 357.9187 284.1005 278.9925 299.1477 57.9188 5.5373 356.9811 5.7446 0.0000 0.0000 0.0000 0.0000 0.0000 0.0000 0.0000 0.0000 0.0000 0.0000 0.0000 0.0000 0.0000 0.0000 0.0000 0.0000 0.0000 0.0000 0.0000 0.0000 0.0000 0.0000 0.0000 0.0000 0.0000 0.0000 0.0000 0.0000 0.0000 0.0000 0.0000 0.0000 0.0000 0.0000 0.0000 0.0000 0.0000 0.0000 0.0000 0.0000 0.0000 0.0000 0.0000 0.0000 0.0000 5.0909 5.1958 1.1341 54.4162 358.9963 61.0964 42.6552 351.9729 13.0998 349.9062 357.7584 8.7462 0.0000 0.0000 0.0000 0.0000 0.0000 0.0000 0.0000 0.0000 0.0000 0.0000 0.0000 0.0000 0.0000 0.0000 0.0000 0.0000 0.0000 0.0000 0.0000 0.0000 0.0000 0.0000 0.0000 0.0000 0.0000 0.0000 0.0000 0.0000 0.0000 0.0000 0.0000 0.0000 0.0000 0.0000 0.0000 0.0000 0.0000 0.0000 0.0000 0.0000 0.0000 0.0000 0.0000 0.0000 0.0000 1.6451 3.9581 2.2659 2.4682 19.4693 6.8119 357.2671 343.0192 356.8607 356.3049 2.5146 359.4308 352.9832 6.3147 352.4458 8.0531 18.1859 5.0710 348.4552 347.0840 6.5897 2.8754 0.7626 359.9676 
-0.0233 0.8396 0.0342 0.1302 352.5747 358.1363 4.7259 354.9363 359.2936 1.5796 4.0194 2.2383 354.9243 4.7171 359.0632 354.5529 355.2015 3.0245 351.5396 4.2906 3.8955 326.5204 357.5438 284.1561 270.5875 301.6137 63.7373 5.2228 356.7826 6.4336 0.0000 0.0000 0.0000 0.0000 0.0000 0.0000 0.0000 0.0000 0.0000 0.0000 0.0000 0.0000 0.0000 0.0000 0.0000 0.0000 0.0000 0.0000 0.0000 0.0000 0.0000 0.0000 0.0000 0.0000 0.0000 0.0000 0.0000 0.0000 0.0000 0.0000 0.0000 0.0000 0.0000 0.0000 0.0000 0.0000 0.0000 0.0000 0.0000 0.0000 0.0000 0.0000 0.0000 0.0000 0.0000 5.1217 5.0189 1.0829 53.9844 358.3822 60.5772 46.8861 348.5002 12.7911 350.3217 357.7330 8.9466 0.0000 0.0000 0.0000 0.0000 0.0000 0.0000 0.0000 0.0000 0.0000 0.0000 0.0000 0.0000 0.0000 0.0000 0.0000 0.0000 0.0000 0.0000 0.0000 0.0000 0.0000 0.0000 0.0000 0.0000 0.0000 0.0000 0.0000 0.0000 0.0000 0.0000 0.0000 0.0000 0.0000 0.0000 0.0000 0.0000 0.0000 0.0000 0.0000 0.0000 0.0000 0.0000 0.0000 0.0000 0.0000 1.5627 4.0111 2.1471 2.3113 19.1313 6.6915 357.2284 343.2480 356.9113 356.2902 2.5146 359.4330 352.8432 6.1854 352.2979 7.9436 18.1900 5.0476 348.4301 347.1197 6.6263 2.8550 0.7472 359.9582 
-0.0229 0.8399 0.0331 0.2174 352.6098 358.2595 5.0925 354.9735 359.4509 1.6849 3.9397 1.9037 354.8687 4.7950 359.0991 354.4964 355.1866 3.0758 351.5565 4.2663 3.9585 327.6804 357.1678 284.2041 263.2277 304.4700 68.4468 4.9253 356.5857 7.1463 0.0000 0.0000 0.0000 0.0000 0.0000 0.0000 0.0000 0.0000 0.0000 0.0000 0.0000 0.0000 0.0000 0.0000 0.0000 0.0000 0.0000 0.0000 0.0000 0.0000 0.0000 0.0000 0.0000 0.0000 0.0000 0.0000 0.0000 0.0000 0.0000 0.0000 0.0000 0.0000 0.0000 0.0000 0.0000 0.0000 0.0000 0.0000 0.0000 0.0000 0.0000 0.0000 0.0000 0.0000 0.0000 5.1522 4.8444 1.0318 53.5579 357.7639 60.0623 51.2292 345.0558 12.1813 350.6978 357.7119 9.1798 0.0000 0.0000 0.0000 0.0000 0.0000 0.0000 0.0000 0.0000 0.0000 0.0000 0.0000 0.0000 0.0000 0.0000 0.0000 0.0000 0.0000 0.0000 0.0000 0.0000 0.0000 0.0000 0.0000 0.0000 0.0000 0.0000 0.0000 0.0000 0.0000 0.0000 0.0000 0.0000 0.0000 0.0000 0.0000 0.0000 0.0000 0.0000 0.0000 0.0000 0.0000 0.0000 0.0000 0.0000 0.0000 1.4806 4.0643 2.0285 2.1632 18.7945 6.5765 357.1993 343.4578 356.9581 356.2718 2.5146 359.4354 352.7066 6.0568 352.1529 7.8394 18.1939 5.0246 348.4253 347.1666 6.6546 2.8346 0.7319 359.9488 
-0.0224 0.8402 0.0320 0.3046 352.6449 358.3827 5.4592 355.0097 359.6084 1.7906 3.8605 1.5690 354.8131 4.8729 359.1349 354.4398 355.1718 3.1272 351.5734 4.2420 4.0216 328.8406 356.7910 284.2445 256.7841 307.6093 72.1876 4.6237 356.3925 7.8596 0.0000 0.0000 0.0000 0.0000 0.0000 0.0000 0.0000 0.0000 0.0000 0.0000 0.0000 0.0000 0.0000 0.0000 0.0000 0.0000 0.0000 0.0000 0.0000 0.0000 0.0000 0.0000 0.0000 0.0000 0.0000 0.0000 0.0000 0.0000 0.0000 0.0000 0.0000 0.0000 0.0000 0.0000 0.0000 0.0000 0.0000 0.0000 0.0000 0.0000 0.0000 0.0000 0.0000 0.0000 0.0000 5.1827 4.6699 0.9806 53.1369 357.1418 59.5517 55.6888 341.6671 11.2881 351.0737 357.6893 9.4128 0.0000 0.0000 0.0000 0.0000 0.0000 0.0000 0.0000 0.0000 0.0000 0.0000 0.0000 0.0000 0.0000 0.0000 0.0000 0.0000 0.0000 0.0000 0.0000 0.0000 0.0000 0.0000 0.0000 0.0000 0.0000 0.0000 0.0000 0.0000 0.0000 0.0000 0.0000 0.0000 0.0000 0.0000 0.0000 0.0000 0.0000 0.0000 0.0000 0.0000 0.0000 0.0000 0.0000 0.0000 0.0000 1.3984 4.1174 1.9098 2.0160 18.4576 6.4627 357.1704 343.6676 357.0048 356.2534 2.5146 359.4377 352.5704 5.9279 352.0082 7.7351 18.1977 5.0016 348.4206 347.2134 6.6828 2.8142 0.7165 359.9395 
-0.0220 0.8407 0.0315 0.5116 352.6931 358.4845 5.6847 354.9885 359.7148 1.8572 3.7362 1.3259 354.7632 4.9621 359.2030 354.3844 355.2457 3.2259 351.5451 4.1096 4.0753 330.1427 356.2455 284.6247 253.6912 312.4981 72.3226 4.4726 356.2509 8.2461 0.0000 0.0000 0.0000 0.0000 0.0000 0.0000 0.0000 0.0000 0.0000 0.0000 0.0000 0.0000 0.0000 0.0000 0.0000 0.0000 0.0000 0.0000 0.0000 0.0000 0.0000 0.0000 0.0000 0.0000 0.0000 0.0000 0.0000 0.0000 0.0000 0.0000 0.0000 0.0000 0.0000 0.0000 0.0000 0.0000 0.0000 0.0000 0.0000 0.0000 0.0000 0.0000 0.0000 0.0000 0.0000 5.3013 4.4510 0.9100 53.0520 356.4123 59.0596 60.1040 339.9263 11.2563 351.3338 357.6417 9.4468 0.0000 0.0000 0.0000 0.0000 0.0000 0.0000 0.0000 0.0000 0.0000 0.0000 0.0000 0.0000 0.0000 0.0000 0.0000 0.0000 0.0000 0.0000 0.0000 0.0000 0.0000 0.0000 0.0000 0.0000 0.0000 0.0000 0.0000 0.0000 0.0000 0.0000 0.0000 0.0000 0.0000 0.0000 0.0000 0.0000 0.0000 0.0000 0.0000 0.0000 0.0000 0.0000 0.0000 0.0000 0.0000 1.3017 4.0745 1.8240 1.8504 18.3317 6.3028 357.1895 343.9838 357.0611 356.2417 2.5184 359.4390 352.4803 5.8664 351.8867 7.6437 18.2001 4.9792 348.4347 347.4189 6.7158 2.8005 0.7047 359.9409 
